<svg xmlns="http://www.w3.org/2000/svg" width="196.053" height="150.759"><path d="M148.419 40.725c-10.576-6.285-13.657-4.1-23.153-11.671C110.441 17.237 92.488 3.794 74.861 0c0 0 4.307 3.492 12.283 9.822.559.465.705.684.595.867-.169.287-.928-.046-.928-.046-6.163-2.345-13.123-3.675-17.839-3.37-1.561.1-2.061.352-2.283.797-.104.209-.119.772.405 1.469 2.061 2.725 7.024 8.064 15.281 13.132 8.486 5.206 23.472 12.592 36.726 18.489 5.932 2.638 10.207 6.164 8.846 10.232-1.52 4.533-7.387 5.15-12.074 3.275-3.808-1.523-7.367-6.297-13.148-12.701-10.016-11.098-14.769-15.525-31.39-12.141-8.332 1.697-16.194 8.516-22.482 15.713-4.196 5.292-6.213 9.694-6.821 15.002 0 0-1.146-2.105-.008-7.49 1.989-9.407-2.341-13.447-2.341-13.447-21.925 31.092 9.261 59.202 33.301 32.281 0 0-7.865 17.467-7.21 22.906-3.355 1.1-4.845 4.186.176 7.91 5.486 4.068 18.961 3.716 29.59-.852 19.845-8.529 32.213-24.423 38.344-34.516 1.432-2.36 2.947-3.508 3.996-3.883 1.591-.574 12.537.086 17.662-2.824.713.347 1.621.533 2.817.442 3.714-.282 5.976-4.727 5.976-4.727s-4.687-8.941-15.916-15.615zm-41.142 44.652c-10.166 7.24-21.192 9.26-28.008 6.262 10.782-7.818 30.624-27.373 30.624-27.373s-3.302-8.318-9.257-3.225c-5.76 4.925-11.081 11.078-13.184 13.043-1.301 1.213-3.508 3.506-4.812 2.52-1.587-1.199 3.137-11.825 6.749-20.631 4.928-12.01-.742-15.762-7.379-15.429-5.947.299-14.071 3.903-19.891 7.462-1.648 1.009-2.773 1.629-3.189 1.244-.364-.339.021-.977 1.102-1.89 15.471-13.108 37.549-12.767 39.523-3.175 1.571 7.65-14.771 26.914-13.697 27.223.104.029.338-.088.68-.322 5.364-7.021 15.521-17.801 19.331-17.384 6.827.746 9.183 9.794 9.183 9.794L92.291 84.034c4.701 1.277 9.842 1.738 14.986 1.343zM22.847 125.501l-2.686 4.695c-1.473-1.389-3.449-2.084-5.925-2.084-2.377 0-4.256.791-5.637 2.373-1.381 1.582-2.072 3.77-2.072 6.565 0 5.641 2.687 8.461 8.06 8.461 2.326 0 4.377-.771 6.151-2.31l2.309 4.945c-1.824 1.139-3.418 1.857-4.782 2.159-1.365.302-2.975.452-4.833.452-4.15 0-7.428-1.209-9.829-3.629C1.201 144.712 0 141.353 0 137.051c0-4.235 1.313-7.657 3.942-10.269 2.628-2.611 6.209-3.916 10.746-3.916 3.129 0 5.849.878 8.159 2.635zM23.947 136.749c0-4.101 1.184-7.439 3.552-10.017s5.494-3.866 9.377-3.866c4.084 0 7.255 1.238 9.516 3.715 2.259 2.478 3.389 5.867 3.389 10.168 0 4.285-1.151 7.691-3.452 10.219-2.302 2.527-5.452 3.791-9.453 3.791-4.083 0-7.26-1.275-9.527-3.829-2.269-2.552-3.402-5.946-3.402-10.181zm6.527 0c0 5.926 2.134 8.889 6.402 8.889 1.958 0 3.511-.771 4.658-2.311 1.146-1.539 1.72-3.732 1.72-6.578 0-5.84-2.126-8.762-6.377-8.762-1.958 0-3.514.77-4.669 2.31-1.156 1.54-1.734 3.69-1.734 6.452zM69.315 129.218a6.59 6.59 0 00-3.69-1.105c-1.457 0-2.749.662-3.879 1.984-1.129 1.321-1.694 2.937-1.694 4.846v15.314h-6.277v-26.89h6.277v2.462c1.757-1.977 4.092-2.963 7.004-2.963 2.142 0 3.783.326 4.921.979l-2.662 5.373zM96.145 138.733H76.938c.117 2.143.854 3.808 2.209 4.996 1.355 1.188 3.18 1.782 5.473 1.782 2.862 0 5.038-.745 6.527-2.235l2.436 4.795c-2.21 1.792-5.507 2.688-9.892 2.688-4.102 0-7.344-1.201-9.729-3.603-2.385-2.401-3.578-5.754-3.578-10.056 0-4.234 1.31-7.665 3.929-10.293 2.62-2.629 5.762-3.941 9.428-3.941 3.899 0 7.03 1.162 9.391 3.489 2.359 2.327 3.539 5.289 3.539 8.888.001.77-.175 1.933-.526 3.49zm-18.981-4.72h13.207c-.436-3.933-2.612-5.9-6.528-5.9-3.582-.001-5.809 1.967-6.679 5.9zM104.08 148.774l-1.406 1.984h-3.539V113.35l6.276-1.507v12.553a10.31 10.31 0 015.474-1.53c3.932 0 7.104 1.242 9.515 3.728 2.411 2.485 3.615 5.671 3.615 9.554 0 4.502-1.214 8.062-3.64 10.683-2.428 2.62-5.717 3.929-9.867 3.929-2.494-.001-4.637-.662-6.428-1.986zm1.331-19.003v14.033c.92 1.088 2.167 1.633 3.741 1.633 3.028 0 5.175-.72 6.439-2.16 1.264-1.438 1.895-3.74 1.895-6.904 0-5.455-2.609-8.184-7.832-8.184-1.858-.001-3.272.526-4.243 1.582zM125.725 136.749c0-4.101 1.184-7.439 3.553-10.017 2.367-2.577 5.493-3.866 9.376-3.866 4.085 0 7.257 1.238 9.517 3.715 2.259 2.478 3.389 5.867 3.389 10.168 0 4.285-1.15 7.691-3.451 10.219-2.303 2.527-5.453 3.791-9.454 3.791-4.083 0-7.26-1.275-9.527-3.829-2.271-2.552-3.403-5.946-3.403-10.181zm6.527 0c0 5.926 2.134 8.889 6.401 8.889 1.959 0 3.511-.771 4.657-2.311 1.146-1.539 1.721-3.732 1.721-6.578 0-5.84-2.127-8.762-6.378-8.762-1.958 0-3.515.77-4.669 2.31-1.155 1.54-1.732 3.69-1.732 6.452zM152.766 136.749c0-4.101 1.184-7.439 3.553-10.017s5.494-3.866 9.377-3.866c4.084 0 7.256 1.238 9.516 3.715 2.26 2.478 3.39 5.867 3.39 10.168 0 4.285-1.151 7.691-3.452 10.219-2.302 2.527-5.452 3.791-9.453 3.791-4.083 0-7.26-1.275-9.527-3.829-2.271-2.552-3.404-5.946-3.404-10.181zm6.528 0c0 5.926 2.134 8.889 6.401 8.889 1.959 0 3.512-.771 4.658-2.311 1.146-1.539 1.719-3.732 1.719-6.578 0-5.84-2.125-8.762-6.377-8.762-1.957 0-3.514.77-4.669 2.31s-1.732 3.69-1.732 6.452zM181.49 128.414h-3.112v-5.047h3.112v-5.473l6.277-2.31v7.782h7.381v5.047h-7.381v11.774c0 1.926.301 3.285.903 4.08s1.657 1.193 3.163 1.193c1.508 0 2.912-.41 4.219-1.23v5.773c-1.457.502-3.531.754-6.227.754-2.678 0-4.736-.758-6.176-2.272s-2.16-3.669-2.16-6.464v-13.607z"/></svg>